<?xml version="1.0" encoding="UTF-8"?><svg xmlns="http://www.w3.org/2000/svg" xmlns:xlink="http://www.w3.org/1999/xlink" fill-opacity="1" color-rendering="auto" color-interpolation="auto" text-rendering="auto" stroke="black" stroke-linecap="square" width="1022" stroke-miterlimit="10" shape-rendering="auto" stroke-opacity="1" fill="black" stroke-dasharray="none" font-weight="normal" stroke-width="1" height="602" font-family="'Dialog'" font-style="normal" stroke-linejoin="miter" font-size="12px" stroke-dashoffset="0" image-rendering="auto">
  <!--Generated by ySVG 2.5-->
  <defs id="genericDefs"/>
  <g>
    <defs id="defs1">
      <linearGradient x1="674" gradientUnits="userSpaceOnUse" x2="940" y1="352" y2="524" id="linearGradient1" spreadMethod="reflect">
        <stop stop-opacity="1" stop-color="rgb(232,238,247)" offset="0%"/>
        <stop stop-opacity="1" stop-color="rgb(183,201,227)" offset="100%"/>
      </linearGradient>
      <linearGradient x1="483" gradientUnits="userSpaceOnUse" x2="533" y1="130" y2="230" id="linearGradient2" spreadMethod="reflect">
        <stop stop-opacity="1" stop-color="rgb(232,238,247)" offset="0%"/>
        <stop stop-opacity="1" stop-color="rgb(183,201,227)" offset="100%"/>
      </linearGradient>
      <linearGradient x1="483" gradientUnits="userSpaceOnUse" x2="533" y1="250" y2="350" id="linearGradient3" spreadMethod="reflect">
        <stop stop-opacity="1" stop-color="rgb(232,238,247)" offset="0%"/>
        <stop stop-opacity="1" stop-color="rgb(183,201,227)" offset="100%"/>
      </linearGradient>
      <linearGradient x1="171.7229" gradientUnits="userSpaceOnUse" x2="231.7229" y1="270" y2="350" id="linearGradient4" spreadMethod="reflect">
        <stop stop-opacity="1" stop-color="rgb(232,238,247)" offset="0%"/>
        <stop stop-opacity="1" stop-color="rgb(183,201,227)" offset="100%"/>
      </linearGradient>
      <linearGradient x1="458" gradientUnits="userSpaceOnUse" x2="558" y1="462" y2="512" id="linearGradient5" spreadMethod="reflect">
        <stop stop-opacity="1" stop-color="rgb(232,238,247)" offset="0%"/>
        <stop stop-opacity="1" stop-color="rgb(183,201,227)" offset="100%"/>
      </linearGradient>
      <linearGradient x1="823" gradientUnits="userSpaceOnUse" x2="923" y1="375" y2="425" id="linearGradient6" spreadMethod="reflect">
        <stop stop-opacity="1" stop-color="rgb(204,255,204)" offset="0%"/>
        <stop stop-opacity="1" stop-color="lime" offset="100%"/>
      </linearGradient>
      <linearGradient x1="970" gradientUnits="userSpaceOnUse" x2="1070" y1="453" y2="503" id="linearGradient7" spreadMethod="reflect">
        <stop stop-opacity="1" stop-color="rgb(232,238,247)" offset="0%"/>
        <stop stop-opacity="1" stop-color="rgb(183,201,227)" offset="100%"/>
      </linearGradient>
      <linearGradient x1="970" gradientUnits="userSpaceOnUse" x2="1070" y1="319.5" y2="369.5" id="linearGradient8" spreadMethod="reflect">
        <stop stop-opacity="1" stop-color="rgb(232,238,247)" offset="0%"/>
        <stop stop-opacity="1" stop-color="rgb(183,201,227)" offset="100%"/>
      </linearGradient>
      <linearGradient x1="151.7229" gradientUnits="userSpaceOnUse" x2="251.7229" y1="462" y2="512" id="linearGradient9" spreadMethod="reflect">
        <stop stop-opacity="1" stop-color="rgb(232,238,247)" offset="0%"/>
        <stop stop-opacity="1" stop-color="rgb(183,201,227)" offset="100%"/>
      </linearGradient>
      <linearGradient x1="686" gradientUnits="userSpaceOnUse" x2="786" y1="465" y2="515" id="linearGradient10" spreadMethod="reflect">
        <stop stop-opacity="1" stop-color="rgb(204,255,204)" offset="0%"/>
        <stop stop-opacity="1" stop-color="lime" offset="100%"/>
      </linearGradient>
      <clipPath clipPathUnits="userSpaceOnUse" id="clipPath1">
        <path d="M0 0 L1022 0 L1022 602 L0 602 L0 0 Z"/>
      </clipPath>
      <clipPath clipPathUnits="userSpaceOnUse" id="clipPath2">
        <path d="M136 69 L1158 69 L1158 671 L136 671 L136 69 Z"/>
      </clipPath>
      <clipPath clipPathUnits="userSpaceOnUse" id="clipPath3">
        <path d="M132 65 L1154 65 L1154 667 L132 667 L132 65 Z"/>
      </clipPath>
      <clipPath clipPathUnits="userSpaceOnUse" id="clipPath4">
        <path d="M-37.4459 -65.619 L984.5541 -65.619 L984.5541 536.381 L-37.4459 536.381 L-37.4459 -65.619 Z"/>
      </clipPath>
      <clipPath clipPathUnits="userSpaceOnUse" id="clipPath5">
        <path d="M-857.723 -497.5059 L164.2771 -497.5059 L164.2771 104.4941 L-857.723 104.4941 L-857.723 -497.5059 Z"/>
      </clipPath>
    </defs>
    <g fill="white" text-rendering="geometricPrecision" shape-rendering="geometricPrecision" transform="translate(-136,-69)" stroke="white">
      <rect x="136" width="1022" height="602" y="69" clip-path="url(#clipPath2)" stroke="none"/>
    </g>
    <g fill="url(#linearGradient1)" text-rendering="geometricPrecision" shape-rendering="geometricPrecision" transform="matrix(1,0,0,1,-136,-69)" stroke="url(#linearGradient1)">
      <path d="M674 352 L940 352 L940 524 L674 524 Z" stroke="none" clip-path="url(#clipPath2)"/>
    </g>
    <g text-rendering="geometricPrecision" stroke-miterlimit="1.45" shape-rendering="geometricPrecision" transform="matrix(1,0,0,1,-136,-69)" stroke-linecap="butt">
      <path fill="none" d="M674 352 L940 352 L940 524 L674 524 Z" clip-path="url(#clipPath2)"/>
      <text x="680" xml:space="preserve" y="369.1387" clip-path="url(#clipPath2)" font-family="sans-serif" stroke="none">howler</text>
    </g>
    <g fill="rgb(210,210,210)" text-rendering="geometricPrecision" shape-rendering="geometricPrecision" transform="matrix(1,0,0,1,-136,-69) translate(4,4)" stroke="rgb(210,210,210)">
      <rect x="930" width="180" height="151.4609" y="84.5391" clip-path="url(#clipPath3)" stroke="none"/>
    </g>
    <g fill="rgb(242,240,216)" text-rendering="geometricPrecision" shape-rendering="geometricPrecision" transform="matrix(1,0,0,1,-136,-69)" stroke="rgb(242,240,216)">
      <rect x="930" width="180" height="151.4609" y="84.5391" clip-path="url(#clipPath2)" stroke="none"/>
      <rect x="930" y="84.5391" clip-path="url(#clipPath2)" fill="rgb(183,182,158)" width="180" height="21.4609" stroke="none"/>
    </g>
    <g font-size="15px" stroke-linecap="butt" transform="matrix(1,0,0,1,-136,-69)" text-rendering="geometricPrecision" font-family="sans-serif" shape-rendering="geometricPrecision" stroke-miterlimit="1.45">
      <text x="995.6831" xml:space="preserve" y="100.4624" clip-path="url(#clipPath2)" stroke="none">host: docker01</text>
      <rect fill="none" x="930" width="180" height="151.4609" y="84.5391" clip-path="url(#clipPath2)"/>
    </g>
    <g fill="rgb(255,204,0)" text-rendering="geometricPrecision" shape-rendering="geometricPrecision" transform="matrix(1,0,0,1,-136,-69)" stroke="rgb(255,204,0)">
      <rect x="945" width="150" height="50" y="121" clip-path="url(#clipPath2)" stroke="none"/>
    </g>
    <g text-rendering="geometricPrecision" stroke-miterlimit="1.45" shape-rendering="geometricPrecision" font-family="sans-serif" transform="matrix(1,0,0,1,-136,-69)" stroke-linecap="butt">
      <text x="1004.4609" xml:space="preserve" y="150.1543" clip-path="url(#clipPath2)" stroke="none">App1</text>
      <rect fill="none" x="945" width="150" height="50" y="121" clip-path="url(#clipPath2)"/>
    </g>
    <g fill="rgb(255,204,0)" text-rendering="geometricPrecision" shape-rendering="geometricPrecision" transform="matrix(1,0,0,1,-136,-69)" stroke="rgb(255,204,0)">
      <rect x="945" width="150" height="50" y="171" clip-path="url(#clipPath2)" stroke="none"/>
    </g>
    <g text-rendering="geometricPrecision" stroke-miterlimit="1.45" shape-rendering="geometricPrecision" font-family="sans-serif" transform="matrix(1,0,0,1,-136,-69)" stroke-linecap="butt">
      <text x="1004.4609" xml:space="preserve" y="200.1543" clip-path="url(#clipPath2)" stroke="none">App2</text>
      <rect fill="none" x="945" width="150" height="50" y="171" clip-path="url(#clipPath2)"/>
    </g>
    <g fill="url(#linearGradient2)" text-rendering="geometricPrecision" shape-rendering="geometricPrecision" transform="matrix(1,0,0,1,-136,-69)" stroke="url(#linearGradient2)">
      <path d="M483 130 L533 130 L533 230 L483 230 Z" stroke="none" clip-path="url(#clipPath2)"/>
    </g>
    <g text-rendering="geometricPrecision" stroke-miterlimit="1.45" shape-rendering="geometricPrecision" transform="matrix(1,0,0,1,-136,-69)" stroke-linecap="butt">
      <path fill="none" d="M483 130 L533 130 L533 230 L483 230 Z" clip-path="url(#clipPath2)"/>
      <text x="500.7314" xml:space="preserve" y="177.1699" clip-path="url(#clipPath2)" font-family="sans-serif" stroke="none">F5</text>
      <text x="495.8154" xml:space="preserve" y="191.1387" clip-path="url(#clipPath2)" font-family="sans-serif" stroke="none">LTM</text>
    </g>
    <g fill="url(#linearGradient3)" text-rendering="geometricPrecision" shape-rendering="geometricPrecision" transform="matrix(1,0,0,1,-136,-69)" stroke="url(#linearGradient3)">
      <path d="M483 250 L533 250 L533 350 L483 350 Z" stroke="none" clip-path="url(#clipPath2)"/>
    </g>
    <g text-rendering="geometricPrecision" stroke-miterlimit="1.45" shape-rendering="geometricPrecision" transform="matrix(1,0,0,1,-136,-69)" stroke-linecap="butt">
      <path fill="none" d="M483 250 L533 250 L533 350 L483 350 Z" clip-path="url(#clipPath2)"/>
      <text x="500.7314" xml:space="preserve" y="297.1699" clip-path="url(#clipPath2)" font-family="sans-serif" stroke="none">F5</text>
      <text x="495.8154" xml:space="preserve" y="311.1387" clip-path="url(#clipPath2)" font-family="sans-serif" stroke="none">LTM</text>
    </g>
    <g text-rendering="geometricPrecision" shape-rendering="geometricPrecision" transform="matrix(1,0,0,1,37.4459,65.619)">
      <g clip-path="url(#clipPath4)">
        <svg xml:space="preserve" opacity="1" writing-mode="lr-tb" stop-color="rgb(0, 0, 0)" shape-rendering="auto" glyph-orientation-horizontal="0deg" color-profile="auto" lighting-color="rgb(255, 255, 255)" color="rgb(0, 0, 0)" font-weight="400" alignment-baseline="auto" font-style="normal" version="1.1" color-interpolation-filters="linearrgb" text-anchor="start" stroke-linecap="butt" color-interpolation="srgb" font-variant="normal" word-spacing="normal" fill-opacity="1" text-rendering="auto" clip-path="none" text-decoration="none" letter-spacing="normal" viewBox="0 0 57 67" glyph-orientation-vertical="auto" display="inline" font-size-adjust="none" overflow="visible" fill="rgb(0, 0, 0)" font-stretch="normal" stroke-dasharray="none" id="svg1.Ebene_1" stroke-miterlimit="4" stop-opacity="1" color-rendering="auto" font-size="12" pointer-events="visiblepainted" mask="none" direction="ltr" baseline-shift="baseline" enable-background="new 0 0 57 67" fill-rule="nonzero" image-rendering="auto" stroke-dashoffset="0" width="57px" marker-end="none" clip="auto" cursor="auto" stroke="none" filter="none" visibility="visible" kerning="auto" stroke-width="1" font-family="&quot;Arial&quot;,&quot;Helvetica&quot;,sans-serif" flood-opacity="1" clip-rule="nonzero" src="none" height="67px" unicode-bidi="normal" stroke-linejoin="miter" stroke-opacity="1" flood-color="rgb(0, 0, 0)" dominant-baseline="auto" marker-start="none" x="0px" marker-mid="none" y="0px">
<g>
	
		<linearGradient gradientTransform="matrix(1 0 0 1 0.3203 -3091.7656)" x1="26.3398" x2="27.5807" gradientUnits="userSpaceOnUse" y1="3115.7266" y2="3145.5239" id="svg1.SVGID_1_">
		<stop offset="0.2711" style="stop-color:#FFAB4F"/>
		<stop offset="1" style="stop-color:#FFD28F"/>
	</linearGradient>
	<path fill="url(#svg1.SVGID_1_)" d="M49.529,51.225c-4.396-4.396-10.951-5.884-12.063-6.109   V37.8H19.278c0,0,0.038,6.903,0,6.868c0,0-6.874,0.997-12.308,6.432C1.378,56.691,0.5,62.77,0.5,62.77   c0,1.938,1.575,3.492,3.523,3.492h48.51c1.947,0,3.521-1.558,3.521-3.492C56.055,62.768,54.211,55.906,49.529,51.225z" stroke-miterlimit="10" stroke="#ED9135"/>
	
		<radialGradient gradientTransform="matrix(1 0 0 1 0.3203 -3091.7656)" gradientUnits="userSpaceOnUse" r="23.425" cx="27.5835" id="svg1.face_x5F_white_1_" cy="3117.4922" fx="23.0139" fy="3115.0024">
		<stop offset="0" style="stop-color:#FFD28F"/>
		<stop offset="1" style="stop-color:#FFAB4F"/>
	</radialGradient>
	<path fill="url(#svg1.face_x5F_white_1_)" id="svg1.face_x5F_white_3_" d="M43.676,23.357   c0.086,10.199-6.738,18.52-15.25,18.586c-8.5,0.068-15.464-8.146-15.55-18.344C12.794,13.4,19.618,5.079,28.123,5.012   C36.627,4.945,43.59,13.158,43.676,23.357z" stroke-miterlimit="10" stroke="#ED9135"/>
	
		<linearGradient gradientTransform="matrix(0.275 0 0 -0.2733 -1752.8849 -3350.4617)" x1="6468.5" x2="6492.1294" gradientUnits="userSpaceOnUse" y1="-12286.8594" y2="-12380.3086" id="svg1.face_highlight_1_">
		<stop offset="0" style="stop-color:#FFFFFF;stop-opacity:0.24"/>
		<stop offset="1" style="stop-color:#FFFFFF;stop-opacity:0.16"/>
	</linearGradient>
	<path fill="url(#svg1.face_highlight_1_)" id="svg1.face_highlight_3_" d="M28.415,5.625c-6.035,0.047-10.747,4.493-12.787,10.386   c-0.664,1.919-0.294,4.043,0.98,5.629c2.73,3.398,5.729,6.283,9.461,8.088c3.137,1.518,7.535,2.385,11.893,1.247   c2.274-0.592,3.988-2.459,4.375-4.766c0.187-1.094,0.293-2.289,0.283-3.553C42.54,13.244,36.729,5.56,28.415,5.625z"/>
	<path fill="#FAE1AA" d="M28.372,0.5   C17.537,0.5,8.269,7.748,9.153,26.125c0.563,6.563,5.862,12.042,9.366,13.531c-2.929-10.968-0.304-25.021-0.585-25.526   c-0.281-0.505,3.536,6.728,3.536,6.728l3.183-8.312c5.541,4.28,0.393,11.309,1.049,11.058c4.26-1.631,5.34-9.228,5.34-9.228   s2.729,3.657,2.701,5.504c-0.054,3.562,2.194-6.067,2.194-6.067l1.027,2.031c6.727,9.822,3.684,16.208,1.648,22.781   c15.666-0.703,12.291-10.48,9.66-18.407C43.59,6.092,39.206,0.5,28.372,0.5z" id="svg1.Hair_Female_1_Red_1_" stroke="#E2B354" stroke-linecap="round" stroke-linejoin="round"/>
	
		<linearGradient gradientTransform="matrix(0.9852 0 0 -0.9852 -34.4844 -3031.9851)" x1="95.9063" x2="31.5133" gradientUnits="userSpaceOnUse" y1="-3134.2153" y2="-3134.2153" id="svg1.body_1_">
		<stop offset="0" style="stop-color:#49AD33"/>
		<stop offset="1" style="stop-color:#C2DA92"/>
	</linearGradient>
	<path fill="url(#svg1.body_1_)" d="M0.5,62.768c0,1.938,1.575,3.494,3.523,3.494h48.51   c1.947,0,3.521-1.559,3.521-3.494c0,0-1.844-6.861-6.525-11.543c-4.815-4.813-8.244-5.146-8.244-5.146   c-1.444,6.983-8.555,8.786-13.007,8.786s-11.322-2.643-11.941-9.439c0,0-4.559,1.199-9.367,5.674   C1.378,56.689,0.5,62.768,0.5,62.768z" id="svg1.body_8_" stroke="#008D33"/>
</g>
</svg>
      </g>
    </g>
    <g text-rendering="geometricPrecision" stroke-miterlimit="1.45" shape-rendering="geometricPrecision" font-family="sans-serif" transform="matrix(1,0,0,1,-136,-69)" stroke-linecap="butt">
      <text x="172.5784" xml:space="preserve" y="125.7889" clip-path="url(#clipPath2)" stroke="none">Customer</text>
    </g>
    <g fill="url(#linearGradient4)" text-rendering="geometricPrecision" shape-rendering="geometricPrecision" transform="matrix(1,0,0,1,-136,-69)" stroke="url(#linearGradient4)">
      <path d="M171.7229 286 C173.5229 270 229.9229 270 231.7229 286 L231.7229 334 C229.9229 350 173.5229 350 171.7229 334 Z" stroke="none" clip-path="url(#clipPath2)"/>
    </g>
    <g text-rendering="geometricPrecision" stroke-miterlimit="1.45" shape-rendering="geometricPrecision" transform="matrix(1,0,0,1,-136,-69)" stroke-linecap="butt">
      <path fill="none" d="M171.7229 286 C173.5229 270 229.9229 270 231.7229 286 L231.7229 334 C229.9229 350 173.5229 350 171.7229 334 Z" clip-path="url(#clipPath2)"/>
      <path fill="none" d="M231.7229 286 C229.9229 302 173.5229 302 171.7229 286" clip-path="url(#clipPath2)"/>
      <text x="188.806" xml:space="preserve" y="314.1543" clip-path="url(#clipPath2)" font-family="sans-serif" stroke="none">DNS</text>
    </g>
    <g fill="url(#linearGradient5)" text-rendering="geometricPrecision" shape-rendering="geometricPrecision" transform="matrix(1,0,0,1,-136,-69)" stroke="url(#linearGradient5)">
      <path d="M458 462 L558 462 L558 512 L458 512 Z" stroke="none" clip-path="url(#clipPath2)"/>
    </g>
    <g text-rendering="geometricPrecision" stroke-miterlimit="1.45" shape-rendering="geometricPrecision" transform="matrix(1,0,0,1,-136,-69)" stroke-linecap="butt">
      <path fill="none" d="M458 462 L558 462 L558 512 L458 512 Z" clip-path="url(#clipPath2)"/>
      <text x="466.3486" xml:space="preserve" y="491.1543" clip-path="url(#clipPath2)" font-family="sans-serif" stroke="none">baboon-proxy</text>
    </g>
    <g fill="url(#linearGradient6)" text-rendering="geometricPrecision" shape-rendering="geometricPrecision" transform="matrix(1,0,0,1,-136,-69)" stroke="url(#linearGradient6)">
      <path d="M823 375 L923 375 L923 425 L823 425 Z" stroke="none" clip-path="url(#clipPath2)"/>
    </g>
    <g text-rendering="geometricPrecision" stroke-miterlimit="1.45" shape-rendering="geometricPrecision" transform="matrix(1,0,0,1,-136,-69)" stroke-linecap="butt">
      <path fill="none" d="M823 375 L923 375 L923 425 L823 425 Z" clip-path="url(#clipPath2)"/>
      <text x="824.9209" xml:space="preserve" y="404.1543" clip-path="url(#clipPath2)" font-family="sans-serif" stroke="none">howler-frontend</text>
    </g>
    <g fill="url(#linearGradient7)" text-rendering="geometricPrecision" shape-rendering="geometricPrecision" transform="matrix(1,0,0,1,-136,-69)" stroke="url(#linearGradient7)">
      <path d="M970 453 L1070 453 L1070 503 L970 503 Z" stroke="none" clip-path="url(#clipPath2)"/>
    </g>
    <g text-rendering="geometricPrecision" stroke-miterlimit="1.45" shape-rendering="geometricPrecision" transform="matrix(1,0,0,1,-136,-69)" stroke-linecap="butt">
      <path fill="none" d="M970 453 L1070 453 L1070 503 L970 503 Z" clip-path="url(#clipPath2)"/>
      <text x="1001.5781" xml:space="preserve" y="482.1543" clip-path="url(#clipPath2)" font-family="sans-serif" stroke="none">chimp</text>
    </g>
    <g fill="url(#linearGradient8)" text-rendering="geometricPrecision" shape-rendering="geometricPrecision" transform="matrix(1,0,0,1,-136,-69)" stroke="url(#linearGradient8)">
      <path d="M970 319.5 L1070 319.5 L1070 369.5 L970 369.5 Z" stroke="none" clip-path="url(#clipPath2)"/>
    </g>
    <g text-rendering="geometricPrecision" stroke-miterlimit="1.45" shape-rendering="geometricPrecision" transform="matrix(1,0,0,1,-136,-69)" stroke-linecap="butt">
      <path fill="none" d="M970 319.5 L1070 319.5 L1070 369.5 L970 369.5 Z" clip-path="url(#clipPath2)"/>
      <text x="990.7061" xml:space="preserve" y="348.6543" clip-path="url(#clipPath2)" font-family="sans-serif" stroke="none">marathon</text>
    </g>
    <g text-rendering="geometricPrecision" shape-rendering="geometricPrecision" transform="matrix(1,0,0,1,857.7229,497.5059)">
      <g clip-path="url(#clipPath5)">
        <svg xml:space="preserve" opacity="1" writing-mode="lr-tb" stop-color="rgb(0, 0, 0)" shape-rendering="auto" glyph-orientation-horizontal="0deg" color-profile="auto" lighting-color="rgb(255, 255, 255)" color="rgb(0, 0, 0)" font-weight="400" alignment-baseline="auto" font-style="normal" version="1.1" color-interpolation-filters="linearrgb" text-anchor="start" stroke-linecap="butt" color-interpolation="srgb" font-variant="normal" word-spacing="normal" fill-opacity="1" text-rendering="auto" clip-path="none" text-decoration="none" letter-spacing="normal" viewBox="0 0 57 65" glyph-orientation-vertical="auto" display="inline" font-size-adjust="none" overflow="visible" fill="rgb(0, 0, 0)" font-stretch="normal" stroke-dasharray="none" id="svg2.Ebene_1" stroke-miterlimit="4" stop-opacity="1" color-rendering="auto" font-size="12" pointer-events="visiblepainted" mask="none" direction="ltr" baseline-shift="baseline" enable-background="new 0 0 57 65" fill-rule="nonzero" image-rendering="auto" stroke-dashoffset="0" width="57px" marker-end="none" clip="auto" cursor="auto" stroke="none" filter="none" visibility="visible" kerning="auto" stroke-width="1" font-family="&quot;Arial&quot;,&quot;Helvetica&quot;,sans-serif" flood-opacity="1" clip-rule="nonzero" src="none" height="65px" unicode-bidi="normal" stroke-linejoin="miter" stroke-opacity="1" flood-color="rgb(0, 0, 0)" dominant-baseline="auto" marker-start="none" x="0px" marker-mid="none" y="0px">
<g>
	
		<linearGradient gradientTransform="matrix(1 0 0 1 0.1602 -1546.3828)" x1="26.5" x2="27.741" gradientUnits="userSpaceOnUse" y1="1570.3457" y2="1600.1431" id="svg2.SVGID_1_">
		<stop offset="0.2711" style="stop-color:#FFAB4F"/>
		<stop offset="1" style="stop-color:#FFD28F"/>
	</linearGradient>
	<path fill="url(#svg2.SVGID_1_)" d="M49.529,51.225c-4.396-4.396-10.951-5.884-12.063-6.109   V37.8H19.278c0,0,0.038,6.903,0,6.868c0,0-6.874,0.997-12.308,6.432C1.378,56.691,0.5,62.77,0.5,62.77   c0,1.938,1.575,3.492,3.523,3.492h48.51c1.947,0,3.521-1.558,3.521-3.492C56.055,62.768,54.211,55.906,49.529,51.225z" stroke-miterlimit="10" stroke="#ED9135"/>
	
		<radialGradient gradientTransform="matrix(1 0 0 1 0.1602 -1546.3828)" gradientUnits="userSpaceOnUse" r="23.4243" cx="27.7427" id="svg2.face_x5F_white_1_" cy="1572.1094" fx="23.1732" fy="1569.6195">
		<stop offset="0" style="stop-color:#FFD28F"/>
		<stop offset="1" style="stop-color:#FFAB4F"/>
	</radialGradient>
	<path fill="url(#svg2.face_x5F_white_1_)" id="svg2.face_x5F_white_3_" d="M43.676,23.357   c0.086,10.2-6.738,18.52-15.247,18.586c-8.502,0.068-15.466-8.146-15.552-18.344C12.794,13.4,19.618,5.079,28.123,5.012   C36.627,4.945,43.59,13.158,43.676,23.357z" stroke-miterlimit="10" stroke="#ED9135"/>
	
		<linearGradient gradientTransform="matrix(0.275 0 0 -0.2733 -977.2951 -1806.3545)" x1="3646.5117" x2="3670.1414" gradientUnits="userSpaceOnUse" y1="-6639.5884" y2="-6733.0391" id="svg2.face_highlight_1_">
		<stop offset="0" style="stop-color:#FFFFFF;stop-opacity:0.24"/>
		<stop offset="1" style="stop-color:#FFFFFF;stop-opacity:0.16"/>
	</linearGradient>
	<path fill="url(#svg2.face_highlight_1_)" id="svg2.face_highlight_3_" d="M27.958,6.333c-6.035,0.047-10.747,4.493-12.787,10.386   c-0.664,1.919-0.294,4.043,0.98,5.629c2.73,3.398,5.729,6.283,9.461,8.088c3.137,1.518,7.535,2.385,11.893,1.247   c2.274-0.592,3.988-2.459,4.375-4.766c0.183-1.094,0.293-2.289,0.283-3.553C42.083,13.952,36.271,6.268,27.958,6.333z"/>
	<path fill="#CC9869" d="M20.278,13.25   c3.417,4.333,9.333,6.917,9.333,6.917l-1.417-3.5c0,0,7.094,4.691,8.083,4.333c0.968-0.2-1.082-3.807-1.082-3.807   s3.138,1.795,4.854,3.969c1.803,2.28,4.285,3.504,4.285,3.504S47.027,2.719,27.289,2.744C8.278,2.709,12.058,27.678,12.058,27.678   L14.695,17c0,0,0.914,5.757,1.399,4.875C17.861,15.211,18.861,11.5,20.278,13.25z" id="svg2.Hair_Young_Brown_1_" stroke="#99724F" stroke-linecap="round" stroke-linejoin="round"/>
	
		<radialGradient gradientTransform="matrix(1 0 0 1 0.1602 -1546.3828)" id="svg2.collar_x5F_body_2_" r="32.4004" cx="15.1191" gradientUnits="userSpaceOnUse" cy="1603.5518">
		<stop offset="0" style="stop-color:#B0E8FF"/>
		<stop offset="1" style="stop-color:#74AEEE"/>
	</radialGradient>
	<path fill="url(#svg2.collar_x5F_body_2_)" d="M0.5,62.768c0,1.938,1.575,3.494,3.523,3.494   h48.51c1.947,0,3.521-1.559,3.521-3.494c0,0-1.844-6.861-6.525-11.543c-4.815-4.813-11.244-6.146-11.244-6.146   c-1.771,1.655-5.61,2.802-10.063,2.802c-4.453,0-8.292-1.146-10.063-2.802c0,0-5.755,0.586-11.189,6.021   C1.378,56.689,0.5,62.768,0.5,62.768z" id="svg2.collar_x5F_body_1_" stroke="#5491CF"/>
	
		<radialGradient gradientTransform="matrix(1 0 0 1 0.1602 -1546.3828)" id="svg2.collar_x5F_r_2_" r="9.2831" cx="31.46" gradientUnits="userSpaceOnUse" cy="1593.6777">
		<stop offset="0" style="stop-color:#80CCFF"/>
		<stop offset="1" style="stop-color:#74AEEE"/>
	</radialGradient>
	<path fill="url(#svg2.collar_x5F_r_2_)" d="M38.159,41.381c0,0-0.574,2.369-3.013,4.441   c-2.108,1.795-5.783,2.072-5.783,2.072l3.974,6.217c0,0,2.957-1.637,5.009-3.848c1.922-2.072,1.37-5.479,1.37-5.479L38.159,41.381z   " id="svg2.collar_x5F_r_1_" stroke="#5491CF"/>
	
		<radialGradient gradientTransform="matrix(1 0 0 1 0.1602 -1546.3828)" id="svg2.collar_x5F_l_2_" r="9.2837" cx="19.0977" gradientUnits="userSpaceOnUse" cy="1593.7188">
		<stop offset="0" style="stop-color:#80CCFF"/>
		<stop offset="1" style="stop-color:#74AEEE"/>
	</radialGradient>
	<path fill="url(#svg2.collar_x5F_l_2_)" d="M18.63,41.422c0,0,0.576,2.369,3.012,4.441   c2.109,1.793,5.785,2.072,5.785,2.072l-3.974,6.217c0,0-2.957-1.637-5.007-3.85c-1.922-2.072-1.37-5.48-1.37-5.48L18.63,41.422z" id="svg2.collar_x5F_l_1_" stroke="#5491CF"/>
	
		<linearGradient gradientTransform="matrix(0.9852 0 0 -0.9852 -18.8086 -1488.5884)" x1="79.9941" x2="15.6017" gradientUnits="userSpaceOnUse" y1="-1567.4565" y2="-1567.4565" id="svg2.body_1_">
		<stop offset="0" style="stop-color:#49AD33"/>
		<stop offset="1" style="stop-color:#C2DA92"/>
	</linearGradient>
	<path fill="url(#svg2.body_1_)" d="M0.5,62.768c0,1.938,1.575,3.494,3.523,3.494h48.51   c1.947,0,3.521-1.559,3.521-3.494c0,0-1.844-6.861-6.525-11.543c-4.815-4.813-11.244-6.146-11.244-6.146   c-1.771,1.655-5.61,2.802-10.063,2.802c-4.453,0-8.292-1.146-10.063-2.802c0,0-5.755,0.586-11.189,6.021   C1.378,56.689,0.5,62.768,0.5,62.768z" id="svg2.body_9_" stroke="#008D33"/>
	
		<linearGradient gradientTransform="matrix(1 0 0 1 0.1602 -1546.3828)" x1="41.248" x2="15.2274" gradientUnits="userSpaceOnUse" y1="1593.0166" y2="1593.0166" id="svg2.turtleneck_1_">
		<stop offset="0" style="stop-color:#49AD33"/>
		<stop offset="1" style="stop-color:#C2DA92"/>
	</linearGradient>
	<path fill="url(#svg2.turtleneck_1_)" d="M39.715,44.786l-1.557-3.405c0,0-0.574,2.369-3.012,4.441   c-2.109,1.795-6.785,2.072-6.785,2.072s-4.753-0.356-6.722-2.031c-2.436-2.072-3.012-4.441-3.012-4.441l-1.555,3.404   c0,0-0.552,1.404,1.37,3.479c1.025,1.105,5.203,3.611,9.682,3.582c4.479-0.029,9.264-2.594,10.218-3.623   C40.266,46.191,39.715,44.786,39.715,44.786z" id="svg2.turtleneck_6_" stroke="#008D33"/>
	<path fill="#CC9869" d="M36.118,33.275   c-0.614,0.828-2.054,1.397-3.662,1.344c-1.399-0.047-2.694-0.286-3.429-0.787c-0.183-0.125-0.499-0.598-0.604-0.604   c-0.136-0.004-0.458,0.476-0.649,0.604c-1.382,0.932-4.73,1.074-6.257,0.139c-0.427-0.262-0.919-0.615-1.066-1.113   c-0.317-1.076,0.336,0.16,1.715-0.092c1.615-0.295,3.577-4.193,5.887-2.596c0.118,0.082,0.274,0.324,0.325,0.325   c0.099,0.002,0.64-0.503,0.788-0.556c2.393-0.859,3.818,2.568,5.377,2.828C35.346,32.899,36.844,32.295,36.118,33.275z" stroke-width="0.9271" stroke="#99724F" stroke-linecap="round" stroke-linejoin="round"/>
</g>
</svg>
      </g>
    </g>
    <g text-rendering="geometricPrecision" stroke-miterlimit="1.45" shape-rendering="geometricPrecision" font-family="sans-serif" transform="matrix(1,0,0,1,-136,-69)" stroke-linecap="butt">
      <text x="991.1416" xml:space="preserve" y="650.4066" clip-path="url(#clipPath2)" stroke="none">Developer</text>
    </g>
    <g fill="url(#linearGradient9)" text-rendering="geometricPrecision" shape-rendering="geometricPrecision" transform="matrix(1,0,0,1,-136,-69)" stroke="url(#linearGradient9)">
      <path d="M151.7229 462 L251.7229 462 L251.7229 512 L151.7229 512 Z" stroke="none" clip-path="url(#clipPath2)"/>
    </g>
    <g text-rendering="geometricPrecision" stroke-miterlimit="1.45" shape-rendering="geometricPrecision" transform="matrix(1,0,0,1,-136,-69)" stroke-linecap="butt">
      <path fill="none" d="M151.7229 462 L251.7229 462 L251.7229 512 L151.7229 512 Z" clip-path="url(#clipPath2)"/>
      <text x="179.056" xml:space="preserve" y="491.1543" clip-path="url(#clipPath2)" font-family="sans-serif" stroke="none">F5 GTM</text>
    </g>
    <g fill="url(#linearGradient10)" text-rendering="geometricPrecision" shape-rendering="geometricPrecision" transform="matrix(1,0,0,1,-136,-69)" stroke="url(#linearGradient10)">
      <path d="M686 465 L786 465 L786 515 L686 515 Z" stroke="none" clip-path="url(#clipPath2)"/>
    </g>
    <g text-rendering="geometricPrecision" stroke-miterlimit="1.45" shape-rendering="geometricPrecision" transform="matrix(1,0,0,1,-136,-69)" stroke-linecap="butt">
      <path fill="none" d="M686 465 L786 465 L786 515 L686 515 Z" clip-path="url(#clipPath2)"/>
      <text x="688.0674" xml:space="preserve" y="487.1699" clip-path="url(#clipPath2)" font-family="sans-serif" stroke="none">howler-backend</text>
      <text x="713.5615" xml:space="preserve" y="501.1387" clip-path="url(#clipPath2)" font-family="sans-serif" stroke="none">baboon</text>
    </g>
    <g text-rendering="geometricPrecision" stroke-miterlimit="1.45" shape-rendering="geometricPrecision" transform="matrix(1,0,0,1,-136,-69)" stroke-linecap="butt">
      <path fill="none" d="M532.9688 292.4899 L937.3391 170.8629" clip-path="url(#clipPath2)"/>
      <path d="M945 168.5586 L932.0684 167.2269 L936.3814 171.1509 L934.9487 176.8031 Z" clip-path="url(#clipPath2)" stroke="none"/>
      <text x="720.2702" xml:space="preserve" y="255.6634" clip-path="url(#clipPath2)" font-family="sans-serif" stroke="none">customer request</text>
      <path fill="none" d="M214.472 173.4946 L475.679 286.0702" clip-path="url(#clipPath2)"/>
      <path d="M483.0258 289.2365 L473.9846 279.8954 L474.7607 285.6744 L470.0267 289.0788 Z" clip-path="url(#clipPath2)" stroke="none"/>
      <text x="310.6923" xml:space="preserve" y="208.4099" clip-path="url(#clipPath2)" font-family="sans-serif" stroke="none">customer request</text>
      <path fill="none" d="M201.7229 201.3853 L201.7229 266.0161" clip-path="url(#clipPath2)"/>
      <path d="M201.7229 274.0161 L206.7229 262.0161 L201.7229 265.0161 L196.7229 262.0161 Z" clip-path="url(#clipPath2)" stroke="none"/>
      <text x="161.7561" xml:space="preserve" y="239.8448" clip-path="url(#clipPath2)" font-family="sans-serif" stroke="none">req</text>
      <path fill="none" d="M226.1396 208.1959 L232.1253 218.05 L237.5667 228.0062 L241.4533 237.4 L243.7853 246.2312 L244.5627 254.5 L243.7853 262.2062 L241.4533 269.35 L237.5667 275.9313 L232.1253 281.95 L230.7893 283.1827" clip-path="url(#clipPath2)"/>
      <path d="M221.9863 201.3585 L223.9428 214.2104 L226.6587 209.0506 L232.4896 209.0188 Z" clip-path="url(#clipPath2)" stroke="none"/>
      <text x="249.9592" xml:space="preserve" y="285.2034" clip-path="url(#clipPath2)" font-family="sans-serif" stroke="none">response</text>
      <path fill="none" d="M508 462.0271 L508 357.961" clip-path="url(#clipPath2)"/>
      <path d="M508 349.961 L503 361.961 L508 358.961 L513 361.961 Z" clip-path="url(#clipPath2)" stroke="none"/>
      <text x="512.457" xml:space="preserve" y="413.1543" clip-path="url(#clipPath2)" font-family="sans-serif" stroke="none">add/delete instance</text>
      <path fill="none" d="M1020 453.0013 L1020 377.4797" clip-path="url(#clipPath2)"/>
      <path d="M1020 369.4797 L1015 381.4797 L1020 378.4797 L1025 381.4797 Z" clip-path="url(#clipPath2)" stroke="none"/>
      <text x="1029.0703" xml:space="preserve" y="415.4043" clip-path="url(#clipPath2)" font-family="sans-serif" stroke="none">control</text>
      <path fill="none" d="M1020 319.5421 L1020 179" clip-path="url(#clipPath2)"/>
      <path d="M1020 171 L1015 183 L1020 180 L1025 183 Z" clip-path="url(#clipPath2)" stroke="none"/>
      <text x="1021.6855" xml:space="preserve" y="262.7544" clip-path="url(#clipPath2)" font-family="sans-serif" stroke="none">execute Mesos task</text>
      <text x="1045.5508" xml:space="preserve" y="276.7231" clip-path="url(#clipPath2)" font-family="sans-serif" stroke="none">to run App1</text>
      <path fill="none" d="M970.0071 363.3749 L930.4799 378.2984" clip-path="url(#clipPath2)"/>
      <path d="M922.9956 381.1241 L935.9882 381.5632 L931.4155 377.9452 L932.4561 372.2078 Z" clip-path="url(#clipPath2)" stroke="none"/>
      <text x="946.7538" xml:space="preserve" y="401.9235" clip-path="url(#clipPath2)" font-family="sans-serif" stroke="none">event</text>
      <path fill="none" d="M1021.4751 568.7185 L1020.537 511.0263" clip-path="url(#clipPath2)"/>
      <path d="M1020.4069 503.0273 L1015.6027 515.1071 L1020.5532 512.0262 L1025.6013 514.9445 Z" clip-path="url(#clipPath2)" stroke="none"/>
      <text x="1030.7476" xml:space="preserve" y="540.0203" clip-path="url(#clipPath2)" font-family="sans-serif" stroke="none">deploy</text>
      <path fill="none" d="M201.7229 345.9963 L201.7229 453.9732" clip-path="url(#clipPath2)"/>
      <path d="M201.7229 461.9732 L206.7229 449.9732 L201.7229 452.9732 L196.7229 449.9732 Z" clip-path="url(#clipPath2)" stroke="none"/>
      <text x="205.6868" xml:space="preserve" y="399.1543" clip-path="url(#clipPath2)" font-family="sans-serif" stroke="none">pull config + reload</text>
      <path fill="none" d="M458.0131 487 L259.7484 487" clip-path="url(#clipPath2)"/>
      <path d="M251.7484 487 L263.7484 492 L260.7484 487 L263.7484 482 Z" clip-path="url(#clipPath2)" stroke="none"/>
      <text x="299.0304" xml:space="preserve" y="461.1543" clip-path="url(#clipPath2)" font-family="sans-serif" stroke="none">configure new app</text>
      <path fill="none" d="M834.9705 424.9829 L780.7426 460.6071" clip-path="url(#clipPath2)"/>
      <path d="M774.0563 464.9995 L786.831 462.5898 L781.5783 460.058 L781.3404 454.2319 Z" clip-path="url(#clipPath2)" stroke="none"/>
      <text x="813.6636" xml:space="preserve" y="467.8025" clip-path="url(#clipPath2)" font-family="sans-serif" stroke="none">event</text>
      <path fill="none" d="M685.9857 487 L566.015 487" clip-path="url(#clipPath2)"/>
      <path d="M558.015 487 L570.015 492 L567.015 487 L570.015 482 Z" clip-path="url(#clipPath2)" stroke="none"/>
      <text x="593.6787" xml:space="preserve" y="461.1543" clip-path="url(#clipPath2)" font-family="sans-serif" stroke="none">configure</text>
    </g>
  </g>
</svg>
